<svg width="1183" height="430" viewBox="0 0 1183 430" fill="none" xmlns="http://www.w3.org/2000/svg">
<path d="M900.428 49.9419L878.193 19.8463L1038 0L982.46 136.315L949.25 102.4L655.372 334.499L572.773 211.228L471.439 361.706L391.583 312.323L312.768 385L0 334.499L44.7534 286.607L295.831 329.561L387.703 240.672L454.786 292.384L576.368 103.704L668.524 241.417L900.428 49.9419Z" fill="white" fill-opacity="0.05"/>
<line x1="536.5" y1="352" x2="536.5" y2="154" stroke="white" stroke-opacity="0.25"/>
<line x1="663.5" y1="352" x2="663.5" y2="154" stroke="white" stroke-opacity="0.25"/>
<line x1="790.5" y1="321" x2="790.5" y2="123" stroke="white" stroke-opacity="0.25"/>
<line x1="917.5" y1="284" x2="917.5" y2="86" stroke="white" stroke-opacity="0.25"/>
<line x1="1044.5" y1="284" x2="1044.5" y2="86" stroke="white" stroke-opacity="0.25"/>
<line x1="1171.5" y1="284" x2="1171.5" y2="86" stroke="white" stroke-opacity="0.25"/>
<rect x="526" y="216" width="22" height="84" fill="#FF9B06"/>
<rect x="653" y="216" width="22" height="51" fill="#FF9B06"/>
<rect x="780" y="218" width="22" height="51" fill="#FF9B06"/>
<rect x="907" y="123" width="22" height="51" fill="#8CFF06"/>
<rect x="1034" y="70" width="22" height="136" fill="#8CFF06"/>
<rect x="1161" y="70" width="22" height="63" fill="#8CFF06"/>
<line x1="282.5" y1="372" x2="282.5" y2="174" stroke="white" stroke-opacity="0.25"/>
<line x1="409.5" y1="372" x2="409.5" y2="174" stroke="white" stroke-opacity="0.25"/>
<rect x="272" y="302" width="22" height="35" fill="#FF0606"/>
<rect x="399" y="287" width="22" height="50" fill="#FF9B06"/>
<line x1="28.5" y1="393" x2="28.5" y2="269" stroke="white" stroke-opacity="0.25"/>
<line x1="155.5" y1="430" x2="155.5" y2="232" stroke="white" stroke-opacity="0.25"/>
<rect x="18" y="317" width="22" height="35" fill="#FF0606"/>
<rect x="145" y="345" width="22" height="50" fill="#FF0606"/>
</svg>
